{  "asset": {    "version": "2.0",    "generator": "THREE.GLTFExporter"  },  "scenes": [    {      "name": "AuxScene",      "nodes": [        1      ]    }  ],  "scene": 0,  "nodes": [    {      "mesh": 0    },    {      "children": [        0      ]    }  ],  "bufferViews": [    {      "buffer": 0,      "byteOffset": 0,      "byteLength": 779040,      "target": 34962,      "byteStride": 12    },    {      "buffer": 0,      "byteOffset": 779040,      "byteLength": 779040,      "target": 34962,      "byteStride": 12    },    {      "buffer": 0,      "byteOffset": 1558080,      "byteLength": 779040,      "target": 34962,      "byteStride": 12    }  ],  "buffers": [    {      "byteLength": 2337120,      "uri": "data:application/octet-stream;base64,"    }  ],  "accessors": [    {      "bufferView": 0,      "componentType": 5126,      "count": 64920,      "max": [        15.130426406860352,        57.26084518432617,        15.49940013885498      ],      "min": [        -15.130425453186035,        -57.26084518432617,        -15.499399185180664      ],      "type": "VEC3"    },    {      "bufferView": 1,      "componentType": 5126,      "count": 64920,      "max": [        1,        1,        0.18816576898097992      ],      "min": [        -0.07013780623674393,        -1,        -0.15885864198207855      ],      "type": "VEC3"    },    {      "bufferView": 2,      "componentType": 5126,      "count": 64920,      "max": [        0.9646862745285034,        0.8879231214523315,        0.838798999786377      ],      "min": [        0.021219009533524513,        0.021219009533524513,        0.0003035269910469651      ],      "type": "VEC3"    }  ],  "materials": [    {      "pbrMetallicRoughness": {        "metallicFactor": 0.5,        "roughnessFactor": 0.5      },      "doubleSided": true    }  ],  "meshes": [    {      "primitives": [        {          "mode": 0,          "attributes": {            "POSITION": 0,            "NORMAL": 1,            "COLOR_0": 2          },          "material": 0        }      ]    }  ]}