{  "asset": {    "version": "2.0",    "generator": "THREE.GLTFExporter"  },  "scenes": [    {      "name": "AuxScene",      "nodes": [        1      ]    }  ],  "scene": 0,  "nodes": [    {      "mesh": 0    },    {      "children": [        0      ]    }  ],  "bufferViews": [    {      "buffer": 0,      "byteOffset": 0,      "byteLength": 888792,      "target": 34962,      "byteStride": 12    },    {      "buffer": 0,      "byteOffset": 888792,      "byteLength": 888792,      "target": 34962,      "byteStride": 12    },    {      "buffer": 0,      "byteOffset": 1777584,      "byteLength": 888792,      "target": 34962,      "byteStride": 12    }  ],  "buffers": [    {      "byteLength": 2666376,      "uri": "data:application/octet-stream;base64,"    }  ],  "accessors": [    {      "bufferView": 0,      "componentType": 5126,      "count": 74066,      "max": [        21.336196899414062,        56.896549224853516,        9.90359115600586      ],      "min": [        -21.336198806762695,        -56.896549224853516,        -9.90359115600586      ],      "type": "VEC3"    },    {      "bufferView": 1,      "componentType": 5126,      "count": 74066,      "max": [        null,        null,        null      ],      "min": [        null,        null,        null      ],      "type": "VEC3"    },    {      "bufferView": 2,      "componentType": 5126,      "count": 74066,      "max": [        0.9911020994186401,        0.9911020994186401,        0.9911020994186401      ],      "min": [        0.022173885256052017,        0.022173885256052017,        0.023153366521000862      ],      "type": "VEC3"    }  ],  "materials": [    {      "pbrMetallicRoughness": {        "metallicFactor": 0.5,        "roughnessFactor": 0.5      },      "doubleSided": true    }  ],  "meshes": [    {      "primitives": [        {          "mode": 0,          "attributes": {            "POSITION": 0,            "NORMAL": 1,            "COLOR_0": 2          },          "material": 0        }      ]    }  ]}