{"accessors" : [{"bufferView" : 0, "byteOffset" : 0, "componentType" : 5126, "count" : 73942, "type" : "VEC3", "max" : [0.3203119933605194, 0.90625, 0.1463170051574707], "min" : [-0.3242189884185791, -0.8125, -0.14249800145626068], "name" : "POSITION"}, {"bufferView" : 0, "byteOffset" : 12, "componentType" : 5121, "normalized" : true, "count" : 73942, "type" : "VEC4", "name" : "COLOR_0"}], "asset" : {"generator" : "Aspose.3D 24.6.0", "version" : "2.0"}, "buffers" : [{"uri" : "buffer.bin", "byteLength" : 1183076}], "bufferViews" : [{"buffer" : 0, "byteOffset" : 0, "byteLength" : 1183072, "byteStride" : 16, "target" : 34962}], "meshes" : [{"primitives" : [{"attributes" : {"POSITION" : 0, "COLOR_0" : 1}, "mode" : 0}], "name" : ""}], "nodes" : [{"mesh" : 0, "name" : "model"}], "scene" : 0, "scenes" : [{"nodes" : [0]}]}