{  "asset": {    "version": "2.0",    "generator": "THREE.GLTFExporter r167"  },  "scenes": [    {      "name": "AuxScene",      "nodes": [        1      ]    }  ],  "scene": 0,  "nodes": [    {      "mesh": 0    },    {      "children": [        0      ]    }  ],  "bufferViews": [    {      "buffer": 0,      "byteOffset": 0,      "byteLength": 717408,      "target": 34962,      "byteStride": 12    },    {      "buffer": 0,      "byteOffset": 717408,      "byteLength": 717408,      "target": 34962,      "byteStride": 12    },    {      "buffer": 0,      "byteOffset": 1434816,      "byteLength": 717408,      "target": 34962,      "byteStride": 12    }  ],  "buffers": [    {      "byteLength": 2152224,      "uri": "data:application/octet-stream;base64,"    }  ],  "accessors": [    {      "bufferView": 0,      "componentType": 5126,      "count": 59784,      "max": [        15.133918762207031,        57.99106216430664,        11.218457221984863      ],      "min": [        -15.133919715881348,        -57.99106216430664,        -11.218457221984863      ],      "type": "VEC3"    },    {      "bufferView": 1,      "componentType": 5126,      "count": 59784,      "max": [        1,        1,        0.6860514283180237      ],      "min": [        -0.1272507607936859,        -1,        -0.9842419624328613      ],      "type": "VEC3"    },    {      "bufferView": 2,      "componentType": 5126,      "count": 59784,      "max": [        0.9559733271598816,        0.8879231214523315,        0.8796223998069763      ],      "min": [        0.021219009533524513,        0.002428215928375721,        0.01032982300966978      ],      "type": "VEC3"    }  ],  "materials": [    {      "pbrMetallicRoughness": {        "metallicFactor": 0.5,        "roughnessFactor": 0.5      },      "doubleSided": true    }  ],  "meshes": [    {      "primitives": [        {          "mode": 0,          "attributes": {            "POSITION": 0,            "NORMAL": 1,            "COLOR_0": 2          },          "material": 0        }      ]    }  ]}